<svg width="1440" height="748" viewBox="0 0 1440 748" fill="none" xmlns="http://www.w3.org/2000/svg">
<rect width="1440" height="493" transform="translate(0 173)" fill="black" fill-opacity="0.99"/>
<path d="M1424.3 172.884C1233.38 171.84 1173.87 174.029 964.501 172.884C1082.43 258.387 1080.57 650.211 1180 666.001L1440 666.001L1440 458.5L1440 452.5L1439.33 448.578L1440 446.666L1440 448.578L1438.75 446.666L1439.33 442.15L1439.33 434.247L1439.33 430.295L1439.33 307.234L1439.33 183.045L1439.33 181.351L1439.33 179.093L1438.75 176.835L1437.59 175.142L1436.44 174.013L1434.7 173.448L1432.97 172.884L1424.3 172.884Z" fill="#262626" fill-opacity="0.62"/>
<path d="M1439.65 350.5C1417.39 347.437 1327.79 316.786 1311.5 296C1295.21 275.214 1223.43 200.957 1222 173.793L1432.78 173.226L1434.7 173.791L1435.28 173.791L1435.86 174.355L1437.01 174.92L1438.17 176.049L1439.65 178.871L1439.65 350.5Z" fill="#121212"/>
<path d="M13.3454 664.378C204.694 664.378 352.368 664.378 562.216 664.378C580.137 404.181 110.386 440.797 33.5001 171L0.000166751 171L0.000141136 380.5L-1.12244 385L0.0338775 388.372L-1.12245 389.501L-1.70069 390.63L-2.27896 392.324L-2.2794 396.841L-2.28009 404.181L-2.28009 408.66L-2.28003 656.475L-2.26315 658.169L-2.2631 659.862L-1.10693 661.556L0.627331 663.249L2.9397 664.378L4.67399 664.378L13.3454 664.378Z" fill="#121212"/>
<path d="M0.521737 666.5C191.87 666.5 160.653 666.5 370.501 666.5C425.419 550.213 243.649 254.546 379.501 171L-0.651362 171L-0.0720309 301L-0.0720256 305.5L-0.0720319 307.5L0.506207 309.483L-0.0720265 310.612L-0.650299 312.306L-0.650739 316.823L-0.651415 324.163L-0.651427 328.642L-0.651438 576.457L-0.634545 578.15L-0.634486 579.844L0.52172 581.537L1.00049 584.5L-0.651427 592L0.521737 666.5Z" fill="#262626" fill-opacity="0.59"/>
</svg>
